<svg width="31" height="30" viewBox="0 0 31 30" fill="none" xmlns="http://www.w3.org/2000/svg">
<ellipse cx="15.1364" cy="14.6812" rx="15.1364" ry="14.6812" fill="#D9D9D9"/>
<path d="M10.0571 17.8293C9.75977 18.1177 9.75977 18.5853 10.0571 18.8737C10.3544 19.1621 10.8365 19.1621 11.1338 18.8737L10.0571 17.8293ZM19.6818 10.2768C19.6818 9.86899 19.341 9.53837 18.9205 9.53837L12.0682 9.53837C11.6477 9.53837 11.3069 9.86899 11.3069 10.2768C11.3069 10.6847 11.6477 11.0153 12.0682 11.0153H18.1591L18.1591 16.923C18.1591 17.3309 18.5 17.6615 18.9205 17.6615C19.341 17.6615 19.6818 17.3309 19.6818 16.923L19.6818 10.2768ZM11.1338 18.8737L19.4588 10.799L18.3821 9.75466L10.0571 17.8293L11.1338 18.8737Z" fill="black"/>
</svg>
