<svg width="50" height="50" viewBox="0 0 50 50" fill="none" xmlns="http://www.w3.org/2000/svg">
<g clip-path="url(#clip0_114_153)">
<mask id="mask0_114_153" style="mask-type:luminance" maskUnits="userSpaceOnUse" x="0" y="0" width="50" height="50">
<path d="M50 0H0V50H50V0Z" fill="white"/>
</mask>
<g mask="url(#mask0_114_153)">
<path d="M48.0355 15.2698C46.7764 12.2927 44.9742 9.61909 42.6788 7.32339C40.3833 5.02764 37.7099 3.22505 34.7329 1.96567C31.6502 0.661523 28.3759 0.000195312 25 0C21.6258 0 18.3518 0.661133 15.2691 1.96498C12.2921 3.22412 9.61865 5.02647 7.32305 7.32192C5.02744 9.61738 3.22495 12.2907 1.96562 15.2676C0.661523 18.3503 0.000195356 21.6242 4.32716e-08 24.9985C-0.00019527 28.373 0.660791 31.6473 1.96455 34.7302C3.22359 37.7074 5.02588 40.3809 7.32133 42.6767C9.6168 44.9724 12.2902 46.775 15.2673 48.0344C18.35 49.3385 21.6242 49.9998 24.9998 50C28.3739 50 31.6483 49.3389 34.7311 48.035C37.7082 46.7759 40.3815 44.9736 42.6771 42.6782C44.9726 40.3827 46.7752 37.7094 48.0345 34.7324C49.3386 31.6497 49.9998 28.3758 50 25.0015C50.0002 21.627 49.3392 18.3529 48.0355 15.2698ZM25.0002 47.6723C18.9441 47.672 13.2494 45.3132 8.96733 41.0308C4.68539 36.7482 2.32739 31.0547 2.32773 24.9986C2.32847 12.4979 12.4992 2.32779 25.0014 2.32779C31.0573 2.32812 36.7508 4.68677 41.0326 8.96924C45.3145 13.2518 47.6726 18.9453 47.6723 25.0014C47.6715 37.5021 37.5009 47.6723 25.0002 47.6723Z" fill="white"/>
<path d="M7.54399 19.4983C7.91996 20.4797 8.3834 21.426 8.86172 22.3607C9.99828 24.5813 11.1688 26.7392 12.738 28.691C14.3239 30.6636 16.1963 32.5751 18.4019 33.851C19.0153 34.2059 19.6602 34.5054 20.3319 34.733C22.9237 35.6109 25.7663 35.5272 26.6441 34.9419C27.522 34.3568 26.4769 30.5109 27.2711 30.051C28.0655 29.5912 29.4867 30.5945 30.5317 31.5142C31.5769 32.4337 32.3711 33.228 32.9564 33.8551C33.3229 34.2477 33.5808 34.7163 34.0587 34.9965C34.849 35.4597 35.902 35.4083 36.7837 35.4107C37.275 35.4122 37.7667 35.4139 38.2582 35.4077C38.5903 35.4036 38.9226 35.4143 39.2546 35.3983C39.8 35.3718 40.5134 35.1565 40.4725 34.474C40.4628 34.3128 40.427 34.1198 40.3628 33.9709C40.225 33.6509 40.0309 33.3186 39.8223 33.0398C38.7355 31.5872 38.0144 30.8453 37.4711 30.26C36.9276 29.6748 34.6911 27.5636 34.5449 27.1457C34.3985 26.7277 34.3514 26.5422 34.7669 25.9778C35.1823 25.4134 36.0916 23.9895 36.8023 22.9654C37.2479 22.3231 37.6528 21.6515 38.0528 20.9801C38.5244 20.1886 38.9681 19.3778 39.3461 18.5372C39.515 18.1615 39.6685 17.8189 39.5638 17.3978C39.4937 17.1156 39.3349 16.8677 39.0394 16.7981C38.8781 16.7601 38.7022 16.7562 38.537 16.7562C37.9205 16.7562 36.3109 16.7562 36.3109 16.7562C36.02 16.7562 35.7291 16.7519 35.4381 16.7525C35.1399 16.753 34.8391 16.7507 34.5417 16.7762C34.1185 16.8124 33.8591 17.1387 33.6464 17.4677C33.3859 17.8703 33.149 18.2892 32.8964 18.6968C32.7237 18.9754 32.5546 19.2562 32.3887 19.5387C32.1293 19.9803 31.8622 20.4169 31.5949 20.8536C31.484 21.0348 31.3728 21.2157 31.2634 21.3978C30.9499 21.9203 28.2328 25.4943 27.6893 25.6409C27.1459 25.7872 26.9578 25.7454 26.9578 24.6375C26.9578 23.5298 26.9578 17.2384 26.9578 17.2384C26.9578 17.2384 26.9161 16.7533 26.4563 16.7533C25.9964 16.7533 23.8635 16.7533 23.8635 16.7533H19.4646C19.4646 16.7533 18.43 16.7577 18.7958 17.6878C19.1616 18.618 20.2432 18.9001 20.2432 20.4521C20.2432 22.0039 20.2432 26.5343 20.2432 26.5343C20.2432 26.5343 20.0603 27.8981 18.8794 26.7693C17.9488 25.88 17.182 24.8284 16.5046 23.7381C15.8002 22.6045 15.2326 21.4269 14.7272 20.1931C14.5826 19.8403 14.4394 19.4868 14.291 19.1356C14.136 18.7689 13.9824 18.4016 13.8338 18.0324C13.6612 17.6034 13.4765 17.0428 13.0111 16.8454C12.7771 16.7462 12.5183 16.751 12.2689 16.751C11.3439 16.7513 10.419 16.7539 9.49415 16.7521C9.22275 16.7516 8.95136 16.7513 8.67998 16.7521C8.03921 16.7536 7.24224 16.7347 7.09024 17.5351C7.00263 17.9962 7.17675 18.4884 7.32251 18.9203C7.38857 19.1166 7.47007 19.3053 7.54399 19.4983Z" fill="white"/>
</g>
</g>
<defs>
<clipPath id="clip0_114_153">
<rect width="50" height="50" fill="white"/>
</clipPath>
</defs>
</svg>
