<svg width="50" height="50" viewBox="0 0 50 50" fill="none" xmlns="http://www.w3.org/2000/svg">
<g clip-path="url(#clip0_114_160)">
<mask id="mask0_114_160" style="mask-type:luminance" maskUnits="userSpaceOnUse" x="0" y="0" width="50" height="50">
<path d="M50 0H0V50H50V0Z" fill="white"/>
</mask>
<g mask="url(#mask0_114_160)">
<path d="M42.8982 7.10182C38.3183 2.52189 32.2305 0 25.753 0H25.7508C22.5471 0.00038147 19.4252 0.620651 16.4723 1.84403C13.5189 3.06739 10.873 4.83627 8.60748 7.10182C4.02794 11.6814 1.50605 17.7705 1.50605 24.247C1.50605 28.1094 2.43798 31.9477 4.2038 35.3676L0.128179 47.0108C-0.159067 47.8321 0.044256 48.7247 0.659948 49.34C1.09063 49.7711 1.65748 50 2.24038 50C2.49024 50 2.74277 49.958 2.9892 49.8718L14.6324 45.7965C18.0523 47.5624 21.8906 48.4944 25.753 48.4944C32.2295 48.4944 38.3183 45.9721 42.8982 41.3926C47.4777 36.813 50 30.7239 50 24.2474C50 17.7705 47.4782 11.6814 42.8982 7.10182ZM40.8245 39.3188C36.7989 43.3448 31.4461 45.5617 25.753 45.5617C22.2702 45.5617 18.8103 44.7003 15.7471 43.0698C15.1917 42.7745 14.5352 42.7238 13.9458 42.9302L3.36762 46.6324L7.07017 36.0542C7.27655 35.4641 7.22542 34.8076 6.93017 34.2526C5.30015 31.1902 4.43841 27.7302 4.43841 24.247C4.43841 18.5539 6.65552 13.2011 10.6812 9.17548C14.7064 5.15023 20.0585 2.93312 25.7511 2.93236H25.753C31.4465 2.93236 36.7989 5.14945 40.8245 9.17548C44.8506 13.2011 47.0676 18.5535 47.0676 24.247C47.0676 29.9405 44.8506 35.2932 40.8245 39.3188Z" fill="white"/>
<path d="M34.7641 26.4134C33.6487 25.2981 31.8337 25.2981 30.7182 26.4134L29.4982 27.6334C26.469 25.9828 24.0178 23.5314 22.3667 20.5021L23.5867 19.2823C24.7025 18.1668 24.7025 16.3518 23.5867 15.2364L20.2991 11.9489C19.1837 10.8335 17.3687 10.8335 16.2532 11.9489L13.6234 14.5787C12.117 16.0852 12.0419 18.6749 13.4117 21.8712C14.6011 24.6464 16.7778 27.6967 19.5408 30.4597C22.3038 33.2226 25.354 35.3993 28.1291 36.5888C29.6478 37.2396 31.0291 37.5641 32.2228 37.5641C33.5414 37.5641 34.631 37.1678 35.4217 36.377L38.0516 33.7468C38.5922 33.2064 38.8898 32.4884 38.8898 31.7243C38.8898 30.9597 38.5922 30.2415 38.0516 29.7014L34.7641 26.4134ZM33.3481 34.3034C32.9182 34.7334 31.596 34.884 29.2846 33.8937C26.844 32.8478 24.1199 30.8915 21.6144 28.3861C19.109 25.8805 17.1532 23.1568 16.1072 20.7162C15.1165 18.4049 15.2672 17.0823 15.697 16.6525L18.2766 14.0729L21.4626 17.2593L19.9357 18.7867C19.2452 19.4771 19.0784 20.5243 19.5213 21.3926C21.529 25.3293 24.6711 28.4714 28.6079 30.4791C29.4766 30.922 30.5237 30.7556 31.2141 30.0649L32.7411 28.5379L35.9276 31.7243L33.3481 34.3034Z" fill="white"/>
</g>
</g>
<defs>
<clipPath id="clip0_114_160">
<rect width="50" height="50" fill="white"/>
</clipPath>
</defs>
</svg>
