<svg width="45" height="45" viewBox="0 0 45 45" fill="none" xmlns="http://www.w3.org/2000/svg">
<circle cx="22.5" cy="22.5" r="21.75" stroke="#565654" stroke-width="1.5"/>
<path d="M21.2076 16.3383C21.6994 15.8465 21.6994 15.0491 21.2076 14.5573C20.7158 14.0655 19.9185 14.0655 19.4267 14.5573L12.7103 21.2737C12.4644 21.5196 12.3414 21.8419 12.3414 22.1642C12.3414 22.335 12.3754 22.4978 12.437 22.6463C12.4984 22.7948 12.5895 22.934 12.7103 23.0547L19.4267 29.7711C19.9185 30.2629 20.7158 30.2629 21.2076 29.7711C21.6994 29.2793 21.6994 28.482 21.2076 27.9902L16.641 23.4236H32.9104C33.606 23.4236 34.1698 22.8597 34.1698 22.1642C34.1698 21.4687 33.606 20.9049 32.9104 20.9049H16.641L21.2076 16.3383Z" fill="#565654"/>
</svg>
