<svg width="45" height="45" viewBox="0 0 45 45" fill="none" xmlns="http://www.w3.org/2000/svg">
<circle cx="22.5" cy="22.5" r="21.75" transform="rotate(-180 22.5 22.5)" stroke="#565654" stroke-width="1.5"/>
<path d="M23.7924 28.6617C23.3006 29.1535 23.3006 29.9509 23.7924 30.4427C24.2842 30.9345 25.0815 30.9345 25.5733 30.4427L32.2897 23.7263C32.5356 23.4804 32.6586 23.1581 32.6586 22.8358C32.6586 22.665 32.6246 22.5022 32.563 22.3537C32.5016 22.2052 32.4105 22.066 32.2897 21.9453L25.5733 15.2289C25.0815 14.7371 24.2842 14.7371 23.7924 15.2289C23.3006 15.7207 23.3006 16.518 23.7924 17.0098L28.359 21.5764H12.0896C11.394 21.5764 10.8302 22.1403 10.8302 22.8358C10.8302 23.5313 11.394 24.0951 12.0896 24.0951L28.359 24.0951L23.7924 28.6617Z" fill="#565654"/>
</svg>
