<svg width="22" height="20" viewBox="0 0 22 20" fill="none" xmlns="http://www.w3.org/2000/svg">
<path d="M11.8649 0.996161C11.4796 0.33201 10.5204 0.332008 10.1351 0.996161L7.42101 5.67347C7.23064 6.00155 6.90159 6.22544 6.52653 6.28209L1.44021 7.05032C0.58593 7.17935 0.28627 8.25796 0.951576 8.80916L4.74067 11.9484C5.09141 12.239 5.25633 12.6973 5.17113 13.1448L4.17996 18.3499C4.02327 19.1727 4.88706 19.812 5.62821 19.4218L10.4176 16.9C10.7821 16.708 11.2178 16.708 11.5824 16.9L16.3718 19.4218C17.1129 19.812 17.9767 19.1727 17.82 18.3499L16.8289 13.1448C16.7437 12.6973 16.9086 12.239 17.2593 11.9484L21.0484 8.80916C21.7137 8.25796 21.4141 7.17935 20.5598 7.05032L15.4735 6.28209C15.0984 6.22544 14.7694 6.00155 14.579 5.67347L11.8649 0.996161Z" fill="#E91609"/>
</svg>
