<svg width="11" height="20" viewBox="0 0 11 20" fill="none" xmlns="http://www.w3.org/2000/svg">
<path d="M10.5 0.462056C10.5 0.20274 10.2921 -0.0263052 10.0499 0.0664222C9.84878 0.143432 9.66877 0.287291 9.5465 0.498002L6.83245 5.17531C6.64208 5.50339 6.31303 5.72729 5.93796 5.78393L0.85165 6.55216C-0.0026322 6.68119 -0.302292 7.7598 0.363014 8.311L4.1521 11.4502C4.50285 11.7408 4.66777 12.1992 4.58256 12.6466L3.5914 17.8517C3.43471 18.6746 4.2985 19.3139 5.03965 18.9236L9.82906 16.4018C9.87592 16.3771 9.92395 16.3556 9.97286 16.3373C10.2445 16.2355 10.5 16.0143 10.5 15.7243V0.462056Z" fill="#E91609"/>
</svg>
